# xmcd
#
# Track frame offsets: 
#        150
#        21545
#        41930
#        68817
#        92142
#        108080
#        130050
#        153275
#        178200
#        193980
#        209975
#        227067
#        246875
#        273112
#
# Disc length: 4504 seconds
#
# Revision: 5
# Processed by: cddbd v1.5.2PL0 Copyright (c) Steve Scherf et al.
# Submitted via: ExactAudioCopy v1.0b3
#
DISCID=d111960e
DTITLE=Lynyrd Skynyrd - All Time Greatest Hits
DYEAR=2000
DGENRE=Southern Rock
TTITLE0=Sweet Home Alabama
TTITLE1=Gimme Three Steps
TTITLE2=Simple Man
TTITLE3=Saturday Night Special
TTITLE4=Swamp Music
TTITLE5=The Ballad Of Curtis Lowe
TTITLE6=Call Me The Breeze
TTITLE7=Comin' Home
TTITLE8=Gimme Back My Bullets
TTITLE9=What's Your Name
TTITLE10=You Got That Right
TTITLE11=All I Can Do Is Write About It (Acoustic Version)
TTITLE12=That Smell
TTITLE13=Free Bird (Live)
EXTD=
EXTT0=
EXTT1=
EXTT2=
EXTT3=
EXTT4=
EXTT5=
EXTT6=
EXTT7=
EXTT8=
EXTT9=
EXTT10=
EXTT11=
EXTT12=
EXTT13=
PLAYORDER=
